<svg xmlns="http://www.w3.org/2000/svg" width="571.878" height="242.016">
  <style type="text/css">
    <![CDATA[
      #logo {
        stroke-dasharray: 497
        stroke-dashoffset: 497
        animation: draw 1400ms ease-in-out 4ms forwards
      }

      @keyframes draw {
        from
        stroke-dashoffset: 1000
        to
        stroke-dashoffset: 0
      }
    ]]>
  </style>
  <path id="logo"
    style="line-height:normal;font-variant-ligatures:normal;font-variant-position:normal;font-variant-caps:normal;font-variant-numeric:normal;font-variant-alternates:normal;font-feature-settings:normal;text-indent:0;text-align:start;text-decoration-line:none;text-decoration-style:solid;text-decoration-color:#000;text-transform:none;text-orientation:mixed;shape-padding:0;isolation:auto;mix-blend-mode:normal" d="M250.113 1.006c3.413-.029 6.674.084 9.762.342 8.298.693 10.246 1.225 16.8 4.586 5.494 2.816 8.044 4.646 9.68 6.793 1.249 1.637 1.71 3.208 1.563 4.533-.147 1.324-.87 2.478-2.338 3.39-1.076.669-2.051.506-2.69.016-.638-.49-.978-1.27-.53-2.383.614-1.526.327-3.185-.585-4.595-.911-1.411-2.397-2.662-4.324-3.793-3.853-2.264-9.519-4.042-16.195-4.905-22.586-2.918-57.75 3.904-94.236 18.112-18.655 7.263-33.198 14.053-43.313 20.189-5.057 3.068-9.009 5.97-11.826 8.72-2.817 2.752-4.539 5.36-4.955 7.938-.367 2.266.555 4.605 2.427 6.856 1.873 2.25 4.721 4.487 8.49 6.71 12.544 7.4 29.954 11.863 65.829 17.018 13.83 1.988 21.62 3.188 26.174 4.238 2.277.526 3.734 1.014 4.718 1.51.985.497 1.507.976 2.051 1.643.53.65.8 1.206.865 1.68.065.473-.024.922-.449 1.55-.849 1.256-3.17 2.994-7.441 5.13-8.542 4.27-24.763 10.32-52.602 20.1-54.446 19.131-73.677 26.348-100.047 37.546-28.876 12.262-43.962 20.572-49.802 27.94-1.281 1.615-2.074 2.74-2.457 3.991-.384 1.251-.281 2.49.023 4.1.698 3.693 3.845 6.78 8.775 9.361 4.93 2.582 11.743 4.708 20.194 6.38 16.902 3.342 40.358 4.844 68.107 4.073 21.273-.59 43.906-1.693 61.705-2.89 8.9-.599 16.59-1.22 22.305-1.815 2.858-.297 5.22-.589 7.006-.869 1.786-.28 2.89-.464 3.693-.875 9.023-4.611 27.58-10.176 90.586-27.021 38.478-10.288 59.999-16.209 72.676-20.534 6.338-2.162 10.474-3.925 13.43-5.667 2.955-1.743 4.73-3.496 6.207-5.477.976-1.31 1.834-2.593 2.449-3.633.307-.52.553-.975.728-1.371.088-.198.16-.378.213-.572.053-.194.135-.385.024-.791-.186-.676-.608-1.043-1.133-1.469-.525-.426-1.204-.864-2.047-1.344-1.686-.96-4.027-2.07-6.957-3.314-5.86-2.489-14.064-5.5-23.84-8.71-16.443-5.396-27.974-10.004-35.053-14.062-3.539-2.029-5.956-3.926-7.31-5.623-1.355-1.696-1.674-3.073-1.274-4.476.3-1.052.79-1.858 1.965-2.742 1.176-.885 3.065-1.795 6.01-2.774 5.89-1.958 15.948-4.203 32.908-7.627a300.292 300.292 0 0 0 12.664-2.846c3.79-.943 6.803-1.785 8.324-2.388l7.524-2.983-6.295-2.236c-8.856-3.145-25.951-3.774-45.166-2.557-19.215 1.218-40.455 4.344-57.225 8.987-4.484 1.241-6.769 1.856-8.02 2.545-.312.172-.592.345-.827.703-.236.358-.265.992-.078 1.36.372.733.865.889 1.435 1.218 1.505.868 4.03 3.41 5.918 5.84.944 1.215 1.75 2.415 2.244 3.342.247.463.415.862.485 1.115.07.252-.032.305.103.07-.204.353-.36.457-.484.5-.124.043-.318.062-.717-.098-.799-.319-2.18-1.397-3.953-3.283a26.361 26.361 0 0 0-3.201-2.861c-1.099-.831-2.106-1.48-3.01-1.795a5.668 5.668 0 0 1-1.637-.94c-.477-.393-.807-.852-.875-1.035-.172-.464-.461-.971-1.01-1.252-.548-.28-1.16-.23-1.718-.062-1.117.337-2.41 1.153-4.508 2.564-2.98 2.005-4.94 3.815-5.904 5.842-.964 2.027-.758 4.218.35 6.412 1.65 3.272 6.25 6.198 20.222 13.809l9.629 5.246 1.687-4.68c.383-1.06.67-2.242.84-3.338.17-1.095.243-2.064.082-2.888-.088-.452.027-1.304.701-2.807.675-1.503 1.867-3.61 3.696-6.563 2.437-3.937 3.748-5.947 4.416-6.58.334-.316.325-.266.402-.257.077.009.408.144.935.449.746.43.981.725 1.045.92.064.195.049.581-.296 1.379-1.54 3.559-3.923 10.422-6.053 17.09-2.13 6.667-3.982 13.023-4.446 15.794-.787 4.713-.514 9.472.594 13.47 1.108 3.996 3.033 7.28 5.803 8.878.777.448 1.65.482 2.629.416.978-.066 2.063-.28 3.17-.601 2.212-.643 4.483-1.674 5.951-3.014 1.273-1.162 1.788-3.165 1.68-5.074-.271-4.8 2.259-9.54 5.086-12.436 1.413-1.448 2.908-2.415 3.974-2.725.533-.154.932-.143 1.176-.06.244.082.398.198.562.574.283.646.388.968.233 2.024-.155 1.055-.646 2.771-1.65 5.681-.32.926-1.73 3.993-2.686 5.992-.691 1.445-2.234 4.381-2.234 4.381l-.325.617.47.52s.662.732 1.534 1.588c.872.855 1.922 1.83 2.91 2.414.777.458 1.774.929 2.727 1.275.476.174.94.315 1.375.405.436.089.822.163 1.328.027.561-.15 1.48.01 2.186.4.706.391 1.066.961 1.072 1.162.019.625-.206.938-.885 1.291-.679.354-1.813.572-3.138.534-2.652-.077-6.033-1.138-8.37-3.036-1.256-1.02-1.98-1.792-3.168-2.502l-.634-.376-.55.494c-.692.625-1.501 1.088-3.216 2.13-4.953 3.013-8.73 3.17-12.969.637-7.211-4.31-10.767-14.334-8.765-25.7l1.01-5.733-14.003-7.293c-7.641-3.98-12.289-6.688-15.128-9.078-2.84-2.39-3.909-4.375-4.635-7.338-.598-2.44-.315-4.66.885-6.868 1.199-2.207 3.36-4.396 6.55-6.519 4.363-2.904 15.19-6.43 28.326-9.377 13.137-2.947 28.668-5.403 42.797-6.52 19.07-1.507 35.793-1.047 47.028.838 5.617.943 9.869 2.27 12.252 3.752 1.191.742 1.882 1.502 2.152 2.168.27.667.237 1.289-.271 2.166-.9 1.55-3.573 3.295-9.172 5.131-5.6 1.837-14.032 3.81-26.248 6.227-11.546 2.283-18.979 3.87-23.723 5.142-2.372.637-4.07 1.192-5.307 1.742-1.236.55-2.056 1.09-2.537 1.868-.273.442-.31.993-.201 1.441.109.448.326.837.607 1.225.563.775 1.408 1.559 2.512 2.408 2.208 1.698 5.457 3.616 9.38 5.486 3.955 1.887 15.714 6.206 26.407 9.735 12.411 4.094 22.734 8.132 28.676 11.197l9.955 5.135 6.078-4.194c2.286-1.576 3.757-2.446 4.756-2.785 1-.34 1.484-.27 2.395.125 1.229.533 1.648 1.168 1.709 2.178.06 1.01-.415 2.494-1.536 4.236-2.24 3.485-6.932 7.925-13.498 12.313-3.26 2.18-5.146 3.503-6.337 4.707-1.192 1.203-1.63 2.43-1.733 3.754-.088 1.141-.025 2.13.309 2.996a3.481 3.481 0 0 0 1.861 1.943c1.717.739 3.954.428 7.148-.428 3.853-1.032 7.311-2.644 9.934-4.53 2.623-1.888 4.478-4.04 4.861-6.395.81-4.984 2.876-9.243 6.362-13.1 1.347-1.491 2.345-2.394 3.158-2.867.812-.473 1.42-.58 2.33-.492 1.152.11 1.566.268 1.744.45.179.184.4.742.606 2.038.189 1.194.162 1.942-.354 3.264-.516 1.321-1.578 3.173-3.45 6.144-1.315 2.09-2.337 3.888-2.976 5.225-.32.668-.544 1.21-.67 1.691-.062.24-.115.458-.082.78a1.2 1.2 0 0 0 .211.585c.153.22.447.41.707.463 1.748.353 3.637-.53 5.809-2.062 2.172-1.532 4.62-3.823 7.191-6.752 2.819-3.21 4.755-4.953 5.836-5.407.54-.226.761-.2 1.053-.054.292.146.703.546 1.158 1.28.701 1.128 1.982 1.446 3.518 1.696 1.536.251 3.415.307 5.43.202 4.028-.21 8.552-1.049 11.68-2.534 5.037-2.392 11.13-8.406 16.898-16.408l4.734-6.568-7.965-.54c-1.724-.116-3.33-.153-4.558-.116a13.93 13.93 0 0 0-1.553.115c-.211.03-.397.065-.592.129-.195.063-.462.061-.754.566-.229.396-.165.685-.125.887.04.201.103.359.176.523.147.329.348.671.603 1.059.512.775 1.238 1.708 2.082 2.66 1.41 1.589 2.075 3.174 2.114 3.992.019.41-.073.544-.135.6-.062.055-.242.16-.777.076.09.014-.3-.124-.746-.443a19.327 19.327 0 0 1-1.64-1.358c-1.251-1.138-2.748-2.674-4.179-4.263-1.43-1.59-2.797-3.24-3.793-4.6-.498-.68-.904-1.29-1.172-1.764-.267-.473-.357-.875-.353-.767-.02-.524.056-.717.293-.944.237-.226.79-.504 1.812-.687 2.045-.366 5.787-.348 11.752.002l11.5.674 4.944-7.948c2.28-3.664 3.513-5.53 4.166-6.12.326-.296.364-.278.521-.27.157.008.537.131 1.127.386.634.274 1.002.501 1.133.645.13.144.188.217.152.715-.07.995-.87 3.27-2.531 7.424l-2.314 5.789 20.142.879c20.159.878 48.91 1.186 60.387.638 3.835-.183 6.279-.076 7.295.227.508.151.516.265.498.213-.018-.052.021.124-.244.58.09-.155.06-.055-.153.045-.212.1-.57.224-1.04.343-.941.24-2.334.471-4.104.674-3.541.407-8.613.71-14.953.9-12.68.38-30.444.304-51.407-.286-4.774-.135-9.152-.19-12.37-.172-1.61.009-2.927.035-3.874.082-.473.023-.852.05-1.152.088-.15.018-.277.038-.42.074a1.336 1.336 0 0 0-.254.088c-.109.05-.292.094-.49.437-.154.267-.14.317-.197.492a21.83 21.83 0 0 0-.2.664c-.153.536-.348 1.258-.576 2.124-.455 1.73-1.034 4.029-1.629 6.486-1.162 4.802-2.14 7.713-2.933 8.902-.397.595-.624.682-.782.695-.157.014-.527-.087-1.105-.544-.443-.351-.644-.688-.732-1.512-.089-.825.032-2.105.406-3.932l1.035-5.062-1.762-.824-5.308 6.636c-5.029 6.287-11.982 11.757-16.547 13.262-1.448.477-5.47 1.002-9.412 1.254-3.942.251-8.006.243-9.53-.047-1.206-.23-2.23-.27-3.156.049-.926.318-1.644 1.014-2.152 1.894-.206.357-1.004 1.32-2.016 2.344a48.147 48.147 0 0 1-3.48 3.178c-4.79 3.947-9.384 4.87-12.631 2.996-1.034-.597-2.143-.903-3.295-.627-1.152.276-2.261.984-3.809 2.127-5.627 4.156-11.328 6.265-15.99 6.385-4.662.119-8.21-1.628-10.074-5.325-.594-1.177-.935-1.958-1.781-2.443-.424-.242-.94-.302-1.375-.244-.435.058-.83.196-1.288.365-.862.32-2.495.52-3.091.442-.3-.04-.397-.004-.582.021-.185.026-.4.064-.657.115a55.13 55.13 0 0 0-2.021.455c-1.665.4-3.947.988-6.693 1.723-5.494 1.47-12.837 3.526-20.71 5.813-15.708 4.563-46.924 12.963-69.324 18.656-19.936 5.067-35.178 9.136-44.888 11.96-4.856 1.413-8.316 2.51-10.342 3.288-1.013.39-1.584.57-2.125 1.064-.136.124-.334.286-.404.71-.07.422.25.942.494 1.1.486.318.72.25 1.066.26.419.014 1.288-.01 2.68-.056 1.392-.046 3.252-.118 5.451-.209a2249.73 2249.73 0 0 0 16.2-.736c26.015-1.27 78.383-2.134 117.69-1.94l61.598.307c27.514.138 49.298-.072 65.035-.62 7.87-.273 14.226-.63 19.043-1.073 4.818-.444 8.047-.937 9.907-1.625.431-.16.774-.294 1.107-.516.167-.111.343-.248.496-.488.153-.24.243-.619.184-.93-.118-.623-.473-.857-.797-1.106-.325-.248-.717-.485-1.219-.775-.608-.351-.931-.714-1.057-.947-.125-.233-.088-.284-.07-.32.018-.037.094-.149.408-.223.315-.075.84-.078 1.532.119 2.086.595 3.463 1.403 4.119 2.182.655.778.76 1.444.31 2.484-.34.786-.699 1.209-1.652 1.69-.953.48-2.518.928-4.96 1.425-13.38 2.725-32.633 3.194-118.98 2.801-85.91-.391-135.183.558-178.484 3.437-11.323.753-15.526 1.556-20.033 3.895-3.522 1.828-8.812 5.06-13.23 7.955-2.21 1.447-4.195 2.807-5.633 3.87-.72.53-1.3.985-1.725 1.36-.212.188-.382.35-.535.534a1.65 1.65 0 0 0-.227.336c-.075.15-.207.393-.095.81.095.355.398.61.6.701.2.092.338.104.456.112.238.016.416-.01.621-.043.412-.068.9-.196 1.489-.371 1.179-.35 2.735-.896 4.418-1.537 3.364-1.283 7.194-2.925 9.39-4.165 1.22-.688 2.44-.843 3.223-.662.687.16.963.454 1.045.979-.021.036-.012.047-.059.092-.22.207-.613.51-1.129.853-1.031.687-2.556 1.554-4.373 2.487-3.632 1.865-8.443 4.005-13.021 5.699-3.061 1.132-5.49 1.56-7.131 1.392-1.641-.168-2.44-.75-2.889-1.96-.18-.488-.18-1.016.114-1.764.293-.748.901-1.68 1.87-2.748 1.94-2.138 5.29-4.818 10.128-8.082a371.724 371.724 0 0 0 6.013-4.135c.771-.544 1.397-.992 1.836-1.32.22-.165.39-.297.526-.409.067-.055.123-.102.191-.17.034-.033.07-.067.13-.15.031-.041.07-.092.118-.201a.971.971 0 0 0 .086-.414l-.031-.242-.324-.518c-.001 0-.18-.124-.237-.15-.114-.052-.168-.06-.21-.069-.087-.018-.123-.02-.159-.023a2.518 2.518 0 0 0-.187-.008 13.4 13.4 0 0 0-.497.006c-.415.01-1.012.03-1.777.062-1.53.064-3.732.17-6.447.309-5.43.28-12.91.695-21.131 1.18-70.824 4.176-100.965 3.243-125.91-3.805-11.167-3.155-16.595-6.046-20.72-10.877-2.029-2.374-2.948-4.671-2.909-7.078.039-2.407 1.061-5.004 3.209-7.885 5.881-7.89 17.87-14.857 49.88-28.59 26.79-11.492 42.56-17.484 94.626-35.955 21.882-7.763 37.451-13.48 47.742-17.562 5.145-2.041 8.969-3.67 11.621-4.955 1.326-.643 2.359-1.197 3.135-1.69.776-.492 1.305-.852 1.664-1.474.145-.252.329-.694.182-1.194-.148-.5-.524-.789-.877-.98-.707-.383-1.67-.62-3.416-.963-3.493-.687-10.005-1.64-22.02-3.352-38.267-5.449-52.367-8.83-66.144-15.798-5.387-2.725-9.075-4.99-11.604-7.225-2.53-2.236-3.919-4.412-4.822-7.156-.926-2.813-.61-5.6 1.123-8.676 1.733-3.077 4.934-6.392 9.715-9.914C124.577 38 140.407 30.132 163.06 21.07c31.817-12.728 63.164-19.862 87.052-20.064z" color="#fdfffc" font-weight="400" font-family="sans-serif" white-space="normal" overflow="visible" solid-color="#fdfffc" fill="#fdfffc"/><path style="line-height:normal;font-variant-ligatures:normal;font-variant-position:normal;font-variant-caps:normal;font-variant-numeric:normal;font-variant-alternates:normal;font-feature-settings:normal;text-indent:0;text-align:start;text-decoration-line:none;text-decoration-style:solid;text-decoration-color:#000;text-transform:none;text-orientation:mixed;shape-padding:0;isolation:auto;mix-blend-mode:normal" d="M246.014 134.21c1.185-.014 2.149.084 2.797.29 2.809.892 4.139 2.403 4.496 5.336.356 2.933-.508 7.334-2.703 13.326-.681 1.858-1.217 3.723-1.54 5.268a16.05 16.05 0 0 0-.314 2.056c-.043.593-.085 1.05.166 1.618.272.615.098 1.066-.453 1.523-.552.457-1.508.748-2.547.52-.698-.154-1.131-.418-1.45-.81-.317-.39-.543-.958-.614-1.806-.143-1.696.412-4.42 1.777-8.056 1.283-3.418 2.285-6.824 2.85-9.49.282-1.334.456-2.476.496-3.39.02-.456.01-.854-.067-1.236-.076-.381-.199-.85-.738-1.162-.69-.398-1.417-.417-2.305-.385-.888.033-1.931.177-3.105.407-2.349.458-5.213 1.263-8.16 2.256-5.895 1.985-12.039 4.64-15.014 7.058-1.684 1.369-2.648 2.133-3.205 3.143a3.313 3.313 0 0 0-.4 1.619c.003.545.107 1.07.24 1.69.324 1.507.055 2.437-1.043 3.572-1.412 1.457-2.127 3.603-2.104 5.923.016 1.628-.37 2.685-.822 3.26-.451.576-.92.733-1.451.666-1.064-.133-2.639-1.58-2.737-4.845-.176-5.902 2.549-13.082 6.247-16.698 2.926-2.861 10.154-6.342 17.335-8.69 3.591-1.173 7.186-2.085 10.247-2.575 1.53-.245 2.935-.373 4.12-.387z" color="#fdfffc" font-weight="400" font-family="sans-serif" white-space="normal" overflow="visible" solid-color="#fdfffc" fill="#fdfffc"/></svg>
