<?xml version="1.0" encoding="UTF-8" standalone="no"?>
<!-- Created with Inkscape (http://www.inkscape.org/) -->

<svg
   xmlns:dc="http://purl.org/dc/elements/1.1/"
   xmlns:cc="http://creativecommons.org/ns#"
   xmlns:rdf="http://www.w3.org/1999/02/22-rdf-syntax-ns#"
   xmlns:svg="http://www.w3.org/2000/svg"
   xmlns="http://www.w3.org/2000/svg"
   xmlns:sodipodi="http://sodipodi.sourceforge.net/DTD/sodipodi-0.dtd"
   xmlns:inkscape="http://www.inkscape.org/namespaces/inkscape"
   version="1.1"
   id="svg2"
   width="571.87799"
   height="242.01642"
   viewBox="0 0 571.87799 242.01642"
   sodipodi:docname="ErikBentStraightSlim.svg"
   inkscape:version="0.92.1 r15371">
  <metadata
     id="metadata8">
    <rdf:RDF>
      <cc:Work
         rdf:about="">
        <dc:format>image/svg+xml</dc:format>
        <dc:type
           rdf:resource="http://purl.org/dc/dcmitype/StillImage" />
        <dc:title></dc:title>
      </cc:Work>
    </rdf:RDF>
  </metadata>
  <defs
     id="defs6" />
  <sodipodi:namedview
     pagecolor="#ffffff"
     bordercolor="#666666"
     borderopacity="1"
     objecttolerance="10"
     gridtolerance="10"
     guidetolerance="10"
     inkscape:pageopacity="0"
     inkscape:pageshadow="2"
     inkscape:window-width="3840"
     inkscape:window-height="2071"
     id="namedview4"
     showgrid="false"
     inkscape:zoom="2.7289902"
     inkscape:cx="412.8391"
     inkscape:cy="40.119582"
     inkscape:window-x="-10"
     inkscape:window-y="-10"
     inkscape:window-maximized="1"
     inkscape:current-layer="svg2" />
  <path
     style="color:#fdfffc;font-style:normal;font-variant:normal;font-weight:normal;font-stretch:normal;font-size:medium;line-height:normal;font-family:sans-serif;font-variant-ligatures:normal;font-variant-position:normal;font-variant-caps:normal;font-variant-numeric:normal;font-variant-alternates:normal;font-feature-settings:normal;text-indent:0;text-align:start;text-decoration:none;text-decoration-line:none;text-decoration-style:solid;text-decoration-color:#000000;letter-spacing:normal;word-spacing:normal;text-transform:none;writing-mode:lr-tb;direction:ltr;text-orientation:mixed;dominant-baseline:auto;baseline-shift:baseline;text-anchor:start;white-space:normal;shape-padding:0;clip-rule:nonzero;display:inline;overflow:visible;visibility:visible;opacity:1;isolation:auto;mix-blend-mode:normal;color-interpolation:sRGB;color-interpolation-filters:linearRGB;solid-color:#fdfffc;solid-opacity:1;vector-effect:none;fill:#fdfffc;fill-opacity:1;fill-rule:nonzero;stroke:none;stroke-width:2;stroke-linecap:butt;stroke-linejoin:miter;stroke-miterlimit:4;stroke-dasharray:none;stroke-dashoffset:0;stroke-opacity:1;color-rendering:auto;image-rendering:auto;shape-rendering:auto;text-rendering:auto;enable-background:accumulate"
     d="m 250.11325,1.0058594 c 3.41263,-0.0288155 6.67388,0.083758 9.76172,0.3417968 8.29833,0.6934518 10.24555,1.2248875 16.80078,4.5859376 5.49281,2.8163274 8.04331,4.6468652 9.67969,6.7929682 1.2485,1.637502 1.70972,3.208935 1.5625,4.533204 -0.14722,1.324268 -0.86899,2.478269 -2.33789,3.390625 -1.0764,0.668571 -2.05116,0.505756 -2.68946,0.01563 -0.63829,-0.490132 -0.97893,-1.27092 -0.53124,-2.382813 0.61439,-1.525952 0.32778,-3.185019 -0.58399,-4.595703 -0.91177,-1.410684 -2.39759,-2.6611 -4.32422,-3.7929688 C 273.5979,7.6307981 267.93219,5.8530229 261.25583,4.9902394 238.67028,2.0715188 203.50519,8.894134 167.0195,23.101567 c -18.65422,7.263899 -33.19774,14.05359 -43.3125,20.189454 -5.05738,3.067932 -9.00895,5.969507 -11.82617,8.720703 -2.81722,2.751195 -4.5384,5.360063 -4.95508,7.9375 -0.36634,2.266037 0.55547,4.605205 2.42774,6.855469 1.87227,2.250263 4.72086,4.48754 8.49023,6.710937 12.543,7.398607 29.95348,11.862148 65.82813,17.017578 13.82961,1.987409 21.61998,3.187528 26.17382,4.238281 2.27692,0.525377 3.73446,1.013271 4.71875,1.509766 0.9843,0.496495 1.50699,0.975418 2.05078,1.642578 0.52983,0.650022 0.80058,1.206066 0.86524,1.679688 0.0647,0.473629 -0.0248,0.922719 -0.44922,1.550779 -0.84876,1.25613 -3.17056,2.99338 -7.44141,5.1289 -8.54168,4.27105 -24.76247,10.31985 -52.60156,20.10157 -54.44672,19.13072 -73.677308,26.34749 -100.046874,37.54492 -28.876332,12.26188 -43.961933,20.57204 -49.8027341,27.93945 -1.2808807,1.61567 -2.0734746,2.74111 -2.4570313,3.99219 -0.3835567,1.25107 -0.2809447,2.48885 0.023437,4.09961 0.6979552,3.6935 3.8452418,6.77953 8.7753904,9.36133 4.930149,2.58179 11.742145,4.70729 20.193359,6.3789 16.902429,3.34323 40.357748,4.84533 68.107423,4.07422 21.2725,-0.59113 43.90625,-1.69359 61.70508,-2.89062 8.89941,-0.59852 16.58965,-1.21961 22.30469,-1.81446 2.85751,-0.29742 5.21988,-0.58913 7.00586,-0.86914 1.78597,-0.28001 2.88935,-0.4641 3.69335,-0.875 9.02327,-4.61152 27.5789,-10.17589 90.58594,-27.02148 38.4782,-10.28756 59.99872,-16.20823 72.67578,-20.53321 6.33853,-2.16248 10.47388,-3.92523 13.42969,-5.66796 2.95581,-1.74274 4.7303,-3.49561 6.20703,-5.47657 0.97646,-1.30986 1.83476,-2.59264 2.44922,-3.63281 0.30723,-0.52008 0.553,-0.97518 0.72852,-1.37109 0.0877,-0.19796 0.16019,-0.37817 0.21289,-0.57227 0.0527,-0.1941 0.1349,-0.38489 0.0234,-0.79101 -0.18559,-0.67622 -0.60791,-1.04267 -1.13281,-1.46875 -0.52489,-0.42608 -1.20411,-0.86406 -2.04687,-1.34375 -1.68553,-0.9594 -4.02665,-2.07012 -6.95703,-3.31446 -5.86076,-2.48867 -14.06444,-5.50065 -23.83985,-8.70898 -16.44344,-5.3968 -27.974,-10.00469 -35.05273,-14.0625 -3.53937,-2.02891 -5.95599,-3.92637 -7.31055,-5.62305 -1.35456,-1.69668 -1.67354,-3.07299 -1.27344,-4.47656 0.29971,-1.0514 0.78948,-1.85735 1.96485,-2.74219 1.17536,-0.88484 3.06489,-1.79416 6.00976,-2.77344 5.88974,-1.95854 15.94817,-4.202803 32.90821,-7.626944 4.35289,-0.878828 8.87422,-1.90188 12.66406,-2.845703 3.78984,-0.943824 6.80295,-1.78574 8.32422,-2.388672 l 7.52343,-2.982422 -6.29492,-2.236328 c -8.85635,-3.145081 -25.95113,-3.774337 -45.16601,-2.556641 -19.21489,1.217696 -40.45528,4.344071 -57.22461,8.986328 -4.48457,1.241466 -6.7689,1.856368 -8.01953,2.544922 -0.31266,0.172139 -0.59287,0.345275 -0.82813,0.703125 -0.23526,0.35785 -0.2643,0.99228 -0.0781,1.359375 0.37236,0.73419 0.86539,0.889572 1.43554,1.21875 1.50441,0.868567 4.02972,3.4094 5.91797,5.83984 0.94413,1.21522 1.7498,2.41479 2.24414,3.3418 0.24717,0.4635 0.41462,0.8628 0.48438,1.11523 0.0698,0.25243 -0.032,0.30505 0.10351,0.0703 -0.20381,0.35302 -0.36095,0.45701 -0.48437,0.5 -0.12342,0.043 -0.31751,0.0618 -0.7168,-0.0977 -0.79857,-0.31896 -2.17936,-1.39767 -3.95312,-3.28321 -0.96069,-1.02121 -2.10289,-2.03028 -3.20118,-2.86132 -1.09828,-0.83105 -2.10585,-1.48055 -3.00976,-1.79493 -0.54737,-0.19038 -1.15944,-0.54618 -1.63672,-0.939445 -0.47728,-0.393274 -0.80729,-0.852237 -0.875,-1.035156 -0.17193,-0.464551 -0.46149,-0.971564 -1.00977,-1.251953 -0.54828,-0.28039 -1.16063,-0.230877 -1.71875,-0.0625 -1.11623,0.336752 -2.40973,1.153021 -4.50781,2.564444 -2.97981,2.00459 -4.94022,3.81521 -5.9043,5.8418 -0.96407,2.02659 -0.75716,4.21786 0.34961,6.41211 1.65008,3.27137 6.2512,6.19743 20.22266,13.80859 l 9.62891,5.2461 1.6875,-4.67969 c 0.38242,-1.05984 0.6704,-2.24241 0.83984,-3.33789 0.16944,-1.09547 0.24294,-2.06473 0.082,-2.88867 -0.0882,-0.4518 0.0267,-1.30378 0.70117,-2.80664 0.67444,-1.50286 1.86706,-3.60998 3.69532,-6.5625 2.43788,-3.93705 3.74792,-5.9475 4.41601,-6.58008 0.33405,-0.31628 0.3251,-0.26634 0.40235,-0.25781 0.0772,0.009 0.40806,0.14467 0.93554,0.44922 0.74587,0.43062 0.98099,0.72474 1.04492,0.91992 0.0639,0.19518 0.0481,0.58126 -0.29687,1.3789 -1.53915,3.55924 -3.92283,10.422 -6.05273,17.08985 -2.12991,6.66785 -3.98227,13.02393 -4.44532,15.79492 -0.78749,4.71253 -0.51447,9.4719 0.59375,13.46875 1.10823,3.99685 3.03321,7.27992 5.80274,8.8789 0.77653,0.44834 1.65066,0.4819 2.6289,0.41602 0.97824,-0.0659 2.06359,-0.28011 3.16993,-0.60156 2.21266,-0.64291 4.48294,-1.6734 5.95117,-3.01367 1.27277,-1.16183 1.78761,-3.16454 1.67968,-5.07422 -0.27113,-4.79873 2.25907,-9.54012 5.08594,-12.43555 1.41344,-1.44771 2.9085,-2.41487 3.97461,-2.72461 0.53306,-0.15487 0.93175,-0.14317 1.17578,-0.0606 0.24404,0.0826 0.39803,0.19858 0.5625,0.57422 0.28282,0.64596 0.38704,0.96747 0.23242,2.02344 -0.15462,1.05597 -0.64592,2.77176 -1.65039,5.68164 -0.31962,0.92591 -1.72926,3.99324 -2.68554,5.99219 -0.69099,1.44439 -2.23438,4.38086 -2.23438,4.38086 l -0.32422,0.61719 0.46875,0.51953 c 0,0 0.66308,0.7325 1.53516,1.58789 0.87208,0.85539 1.92141,1.83036 2.91016,2.41406 0.77662,0.45846 1.77393,0.92893 2.72656,1.27539 0.47631,0.17323 0.9394,0.31492 1.375,0.4043 0.4356,0.0894 0.8217,0.16304 1.32812,0.0273 0.56087,-0.15028 1.47932,0.01 2.18555,0.40039 0.70623,0.39086 1.06624,0.96115 1.07227,1.16211 0.0187,0.62511 -0.20582,0.93777 -0.88477,1.29102 -0.67895,0.35324 -1.81298,0.5716 -3.13867,0.5332 -2.65138,-0.0768 -6.03264,-1.13734 -8.36914,-3.03516 -1.25671,-1.02075 -1.98014,-1.7926 -3.16797,-2.50195 l -0.63477,-0.37695 -0.54882,0.49414 c -0.69324,0.62541 -1.50179,1.08789 -3.2168,2.13086 -4.95296,3.01211 -8.73032,3.16997 -12.96875,0.63672 -7.21175,-4.31035 -10.76733,-14.33378 -8.76563,-25.70118 l 1.00977,-5.73242 -14.00195,-7.29297 c -7.64184,-3.97949 -12.28905,-6.68763 -15.12891,-9.07812 -2.83986,-2.39049 -3.90841,-4.3747 -4.63477,-7.33789 -0.59803,-2.43972 -0.31441,-4.65947 0.88477,-6.86719 1.19918,-2.20772 3.36071,-4.396367 6.55078,-6.519526 4.36256,-2.903507 15.18918,-6.430112 28.32617,-9.376953 13.13699,-2.946841 28.66789,-5.402585 42.79688,-6.519531 19.06964,-1.507523 35.79303,-1.047481 47.02734,0.837891 5.61716,0.942685 9.86921,2.269594 12.25195,3.751953 1.19138,0.741179 1.88192,1.501309 2.15235,2.167969 0.27042,0.666659 0.23744,1.288267 -0.27149,2.166015 -0.89883,1.550527 -3.57231,3.294512 -9.17187,5.130859 -5.59956,1.836348 -14.03134,3.810185 -26.24805,6.226563 -11.54587,2.28369 -18.9786,3.86933 -23.72265,5.14257 -2.37203,0.63662 -4.07041,1.19174 -5.30664,1.74219 -1.23624,0.55045 -2.05604,1.08857 -2.53711,1.86719 -0.27319,0.44216 -0.30977,0.99327 -0.20118,1.4414 0.1086,0.44814 0.32626,0.83684 0.60743,1.22461 0.56233,0.77554 1.40773,1.55935 2.51171,2.40821 2.20798,1.69771 5.45684,3.61611 9.37891,5.48633 3.95582,1.88633 15.71451,6.20612 26.4082,9.73437 12.41105,4.09486 22.73344,8.13277 28.67578,11.19727 l 9.95508,5.13476 6.07813,-4.19336 c 2.28524,-1.57638 3.7563,-2.44591 4.75586,-2.78515 0.99955,-0.33925 1.48399,-0.26966 2.39453,0.125 1.22935,0.53283 1.64852,1.16827 1.70898,2.17773 0.0605,1.00946 -0.41463,2.49375 -1.53515,4.23633 -2.24106,3.48516 -6.93291,7.92494 -13.49805,12.3125 -3.26119,2.17949 -5.14657,3.50351 -6.33789,4.70703 -1.19132,1.20352 -1.63022,2.42949 -1.73242,3.75391 -0.0881,1.14161 -0.0256,2.13118 0.30859,2.99609 0.33423,0.8649 1.00281,1.574 1.86133,1.94336 1.71705,0.73872 3.95405,0.4282 7.14844,-0.42774 3.8521,-1.03216 7.31048,-2.64397 9.93359,-4.53125 2.62312,-1.88727 4.47839,-4.03973 4.86133,-6.39453 0.8105,-4.98402 2.87546,-9.24233 6.36133,-13.09961 1.34746,-1.49103 2.34568,-2.39407 3.1582,-2.86718 0.81252,-0.47312 1.41999,-0.5799 2.33008,-0.49219 1.1523,0.11104 1.56566,0.26801 1.74414,0.45117 0.17847,0.18316 0.40023,0.74114 0.60547,2.03711 0.18911,1.19421 0.16279,1.94202 -0.35352,3.26367 -0.51631,1.32166 -1.57854,3.173 -3.44922,6.14453 -1.31559,2.08981 -2.33741,3.88794 -2.97656,5.22461 -0.31957,0.66834 -0.54428,1.21006 -0.66992,1.69141 -0.0628,0.24067 -0.11582,0.45746 -0.082,0.7793 0.0169,0.16092 0.058,0.36587 0.21094,0.58593 0.15293,0.22006 0.44661,0.41028 0.70703,0.46289 1.74742,0.35307 3.63625,-0.5309 5.80859,-2.0625 2.17234,-1.53159 4.61978,-3.82316 7.19141,-6.75195 2.81816,-3.20956 4.75486,-4.95264 5.83593,-5.40625 0.54054,-0.2268 0.76093,-0.20101 1.05274,-0.0547 0.29181,0.14633 0.70273,0.54598 1.1582,1.2793 0.70114,1.12885 1.98177,1.4466 3.51758,1.69727 1.53581,0.25066 3.41563,0.30639 5.42969,0.20117 4.02811,-0.21045 8.55237,-1.04814 11.67968,-2.53321 5.0381,-2.39243 11.12995,-8.40661 16.89844,-16.4082 l 4.73438,-6.56836 -7.96485,-0.53906 c -1.72442,-0.1168 -3.32962,-0.15405 -4.55859,-0.11719 -0.61449,0.0184 -1.1308,0.0534 -1.55273,0.11524 -0.21097,0.0309 -0.39668,0.0656 -0.5918,0.12891 -0.19512,0.0633 -0.46239,0.0615 -0.75391,0.56641 -0.22889,0.39643 -0.16491,0.68517 -0.125,0.88672 0.0399,0.20152 0.10249,0.3591 0.17578,0.52343 0.1466,0.32867 0.34765,0.67114 0.60352,1.0586 0.51174,0.77491 1.23744,1.70788 2.08203,2.66014 1.40926,1.58895 2.07486,3.17411 2.11328,3.99219 0.0192,0.40905 -0.0724,0.54433 -0.13476,0.59961 -0.0624,0.0553 -0.24205,0.16103 -0.77735,0.0762 0.0909,0.0144 -0.30055,-0.12414 -0.74609,-0.44336 -0.44555,-0.31921 -1.01262,-0.78833 -1.63867,-1.35742 -1.2521,-1.13817 -2.74934,-2.6738 -4.17969,-4.26366 -1.43035,-1.58987 -2.79683,-3.23887 -3.79297,-4.59961 -0.49807,-0.68037 -0.90441,-1.29075 -1.17187,-1.76367 -0.26747,-0.47292 -0.35774,-0.87518 -0.35352,-0.76758 -0.0205,-0.52405 0.0559,-0.71712 0.29297,-0.94336 0.23705,-0.22624 0.78994,-0.50467 1.8125,-0.6875 2.04511,-0.36566 5.78701,-0.34736 11.75195,0.002 l 11.5,0.67382 4.94336,-7.94726 c 2.27982,-3.66411 3.51301,-5.52976 4.16602,-6.1211 0.3265,-0.29566 0.36482,-0.27776 0.52148,-0.26953 0.15667,0.008 0.53664,0.13142 1.12695,0.38672 0.63347,0.27396 1.00181,0.50084 1.13282,0.64453 0.131,0.14369 0.18763,0.21715 0.15234,0.71485 -0.0706,0.99538 -0.87077,3.26991 -2.53125,7.42382 l -2.31445,5.78907 20.14257,0.8789 c 20.15863,0.87801 48.91083,1.18609 60.38672,0.63868 3.83543,-0.18296 6.27885,-0.0764 7.29493,0.22656 0.50803,0.15148 0.51578,0.26493 0.49804,0.21289 -0.0177,-0.052 0.0215,0.12435 -0.24414,0.58008 0.0904,-0.15514 0.0603,-0.055 -0.15234,0.0449 -0.21268,0.0999 -0.5707,0.22402 -1.04102,0.34375 -0.94063,0.23945 -2.33306,0.47061 -4.10351,0.67383 -3.54091,0.40642 -8.61284,0.7105 -14.95313,0.90039 -12.68058,0.37977 -30.44387,0.30312 -51.40625,-0.28712 -4.77441,-0.13444 -9.15244,-0.18968 -12.37109,-0.17187 -1.60933,0.009 -2.92598,0.0355 -3.87305,0.082 -0.47353,0.0233 -0.85241,0.0507 -1.15234,0.0879 -0.14997,0.0186 -0.27707,0.038 -0.41992,0.0742 -0.0714,0.0181 -0.14496,0.038 -0.25391,0.0879 -0.10895,0.0499 -0.29215,0.0947 -0.49023,0.4375 -0.15398,0.26648 -0.14061,0.3169 -0.19727,0.49219 -0.0567,0.17529 -0.12241,0.39646 -0.19922,0.66406 -0.15361,0.53522 -0.34881,1.2577 -0.57617,2.12305 -0.45472,1.73071 -1.03425,4.02943 -1.62891,6.48633 -1.16225,4.80195 -2.13945,7.71321 -2.93359,8.90234 -0.39707,0.59457 -0.62363,0.68211 -0.78125,0.69531 -0.15762,0.0132 -0.5275,-0.0872 -1.10547,-0.54491 -0.44261,-0.35056 -0.64432,-0.68714 -0.73242,-1.51172 -0.0881,-0.82457 0.0326,-2.10448 0.40625,-3.93164 l 1.03515,-5.0625 -1.76171,-0.82422 -5.3086,6.63672 c -5.02829,6.287 -11.98149,11.75713 -16.54687,13.26172 -1.4481,0.47725 -5.47049,1.00251 -9.41211,1.25391 -3.94163,0.2514 -8.0061,0.24318 -9.5293,-0.0469 -1.20591,-0.22963 -2.23047,-0.26921 -3.15625,0.0488 -0.92578,0.31805 -1.64424,1.01448 -2.15234,1.89453 -0.20617,0.35709 -1.00388,1.32042 -2.01563,2.34375 -1.01175,1.02333 -2.26049,2.17254 -3.48047,3.17774 -4.79033,3.94698 -9.38352,4.87094 -12.63086,2.99609 -1.03337,-0.59662 -2.1432,-0.90277 -3.29492,-0.62695 -1.15171,0.27581 -2.26111,0.98402 -3.80859,2.12695 -5.62685,4.15586 -11.32866,6.26536 -15.99024,6.38477 -4.66158,0.1194 -8.20977,-1.62784 -10.07421,-5.32422 -0.59368,-1.17701 -0.93499,-1.9584 -1.78126,-2.44336 -0.42313,-0.24248 -0.94023,-0.30188 -1.375,-0.24414 -0.43476,0.0577 -0.8296,0.1959 -1.2871,0.36523 -0.86231,0.31914 -2.49524,0.51913 -3.0918,0.44141 -0.29942,-0.039 -0.39716,-0.004 -0.58203,0.0215 -0.18487,0.0257 -0.39987,0.0643 -0.65625,0.11524 -0.51278,0.1018 -1.18926,0.25514 -2.02149,0.45508 -1.66445,0.39987 -3.94657,0.9877 -6.69336,1.72265 -5.49358,1.46991 -12.83627,3.52557 -20.70898,5.8125 -15.70872,4.56322 -46.92486,12.96307 -69.32422,18.65625 -19.93653,5.06721 -35.17829,9.13597 -44.88867,11.96094 -4.85519,1.41248 -8.31587,2.50862 -10.3418,3.28711 -1.01296,0.38924 -1.58339,0.56933 -2.125,1.06445 -0.1354,0.12378 -0.33388,0.28597 -0.4043,0.70899 -0.0704,0.42301 0.25088,0.94302 0.49415,1.10156 0.48653,0.31708 0.72041,0.24868 1.0664,0.25976 0.41855,0.0134 1.28781,-0.0107 2.67969,-0.0566 1.39188,-0.0459 3.25189,-0.11826 5.45117,-0.20898 4.39856,-0.18144 10.15207,-0.44118 16.19922,-0.73633 26.0159,-1.26977 78.38411,-2.13363 117.69141,-1.93945 15.51527,0.0766 43.23352,0.21432 61.59765,0.30664 27.51402,0.13832 49.29742,-0.0715 65.03516,-0.61914 7.86887,-0.2738 14.22557,-0.63098 19.04297,-1.07422 4.8174,-0.44324 8.0465,-0.9367 9.90625,-1.625 0.43181,-0.15982 0.77421,-0.29369 1.10742,-0.51563 0.1666,-0.11096 0.34284,-0.24808 0.49609,-0.48828 0.15326,-0.24019 0.24269,-0.61812 0.1836,-0.92968 -0.11819,-0.62314 -0.4723,-0.85741 -0.79688,-1.10547 -0.32457,-0.24807 -0.7165,-0.48542 -1.21875,-0.77539 -0.6082,-0.35115 -0.9312,-0.71425 -1.05664,-0.94727 -0.12544,-0.23302 -0.0885,-0.28358 -0.0703,-0.32031 0.0182,-0.0367 0.0935,-0.14822 0.4082,-0.22266 0.31473,-0.0744 0.83995,-0.0779 1.53125,0.11914 2.08635,0.59474 3.46379,1.40322 4.11914,2.18164 0.65536,0.77843 0.7604,1.444 0.31055,2.48438 -0.3398,0.78586 -0.69911,1.20853 -1.65234,1.68945 -0.95324,0.48092 -2.51823,0.92834 -4.96094,1.42578 -13.37962,2.72465 -32.63227,3.19376 -118.97852,2.80078 -85.9112,-0.39101 -135.18334,0.55804 -178.48437,3.4375 -11.32269,0.75294 -15.52624,1.55584 -20.03321,3.89453 -3.52222,1.8277 -8.81234,5.06037 -13.23046,7.95508 -2.20907,1.44736 -4.19405,2.80653 -5.63282,3.86914 -0.71938,0.53131 -1.30058,0.98554 -1.72461,1.36133 -0.21201,0.1879 -0.38237,0.34951 -0.53515,0.53321 -0.0764,0.0918 -0.15079,0.18599 -0.22656,0.33593 -0.0758,0.14994 -0.20749,0.39338 -0.0957,0.81055 0.095,0.35442 0.39877,0.60914 0.59961,0.70117 0.20085,0.092 0.3383,0.10317 0.45703,0.11133 0.23746,0.0163 0.41552,-0.009 0.6211,-0.043 0.41114,-0.0677 0.89868,-0.1959 1.48828,-0.37109 1.17918,-0.35039 2.73562,-0.89583 4.41797,-1.53711 3.36469,-1.28256 7.19415,-2.92494 9.39062,-4.16408 1.2203,-0.68841 2.43965,-0.84306 3.22266,-0.6621 0.68726,0.15882 0.96284,0.45346 1.04492,0.97851 -0.0213,0.036 -0.0114,0.0474 -0.0586,0.0918 -0.22013,0.20727 -0.61326,0.51001 -1.12891,0.85351 -1.03129,0.68701 -2.55672,1.55379 -4.37305,2.48633 -3.63266,1.86509 -8.44309,4.00564 -13.02148,5.69922 -3.06092,1.13225 -5.48949,1.56097 -7.13086,1.39259 -1.64137,-0.16839 -2.44078,-0.75077 -2.88867,-1.96094 -0.18056,-0.48785 -0.17968,-1.01558 0.11328,-1.76367 0.29296,-0.74809 0.90166,-1.67939 1.87109,-2.74805 1.93886,-2.13732 5.28922,-4.81777 10.12695,-8.08203 2.34652,-1.5833 4.47187,-3.04733 6.01368,-4.13476 0.7709,-0.54372 1.39645,-0.99188 1.83593,-1.32032 0.21975,-0.16421 0.39068,-0.29681 0.52539,-0.4082 0.0674,-0.0557 0.12353,-0.10261 0.19141,-0.16992 0.0339,-0.0337 0.0699,-0.0678 0.13086,-0.15039 0.0305,-0.0413 0.069,-0.0916 0.11719,-0.20117 0.0241,-0.0548 0.0515,-0.12589 0.0703,-0.23047 0.009,-0.0523 0.0156,-0.18304 0.0156,-0.1836 -1e-5,-5.5e-4 -0.0311,-0.24171 -0.0312,-0.24218 -1.2e-4,-4.8e-4 -0.32369,-0.51713 -0.32422,-0.51758 -5.3e-4,-4.5e-4 -0.17919,-0.12455 -0.23633,-0.15039 -0.11428,-0.0517 -0.16779,-0.0591 -0.21094,-0.0684 -0.0863,-0.0185 -0.12225,-0.0205 -0.1582,-0.0234 -0.0719,-0.006 -0.12351,-0.007 -0.1875,-0.008 -0.12799,-0.002 -0.28831,0.001 -0.4961,0.006 -0.41557,0.01 -1.01203,0.0308 -1.77734,0.0625 -1.53061,0.0634 -3.73199,0.16879 -6.44726,0.30859 -5.43056,0.27961 -12.91045,0.69492 -21.13086,1.17969 C 79.716537,224.35037 49.575828,223.41651 24.630859,216.36914 13.46393,213.2143 8.0359099,210.32317 3.9101562,205.49219 c -2.0276706,-2.37427 -2.94681014,-4.67146 -2.9082031,-7.07813 0.038607,-2.40667 1.061302,-5.00376 3.2089844,-7.88476 5.8813845,-7.88955 17.8700405,-14.85767 49.8808595,-28.58985 26.789395,-11.49225 42.559854,-17.48429 94.625003,-35.95507 21.88233,-7.76304 37.45154,-13.4808 47.74218,-17.5625 5.14533,-2.04086 8.9689,-3.67047 11.6211,-4.95508 1.3261,-0.64231 2.35869,-1.19716 3.13476,-1.68946 0.77608,-0.49229 1.30497,-0.85262 1.66407,-1.47461 0.14558,-0.25214 0.32889,-0.693899 0.18164,-1.193355 -0.14725,-0.499456 -0.5235,-0.788925 -0.87696,-0.980469 -0.70691,-0.383087 -1.66991,-0.619374 -3.41601,-0.96289 -3.49221,-0.687032 -10.00425,-1.640654 -22.01953,-3.351563 -38.2674,-5.449059 -52.36742,-8.830512 -66.14453,-15.798828 -5.38614,-2.724252 -9.07428,-4.988968 -11.60352,-7.224609 -2.52924,-2.235641 -3.91897,-4.41194 -4.82227,-7.15625 -0.9258,-2.812671 -0.61033,-5.599016 1.12305,-8.675782 1.73338,-3.076765 4.93392,-6.391793 9.71484,-9.914062 9.56186,-7.044538 25.39139,-14.912576 48.04493,-23.97461 31.81789,-12.7280268 63.1643,-19.862744 87.05273,-20.0644526 z"
     id="path4510" />
  <path
     style="color:#fdfffc;font-style:normal;font-variant:normal;font-weight:normal;font-stretch:normal;font-size:medium;line-height:normal;font-family:sans-serif;font-variant-ligatures:normal;font-variant-position:normal;font-variant-caps:normal;font-variant-numeric:normal;font-variant-alternates:normal;font-feature-settings:normal;text-indent:0;text-align:start;text-decoration:none;text-decoration-line:none;text-decoration-style:solid;text-decoration-color:#000000;letter-spacing:normal;word-spacing:normal;text-transform:none;writing-mode:lr-tb;direction:ltr;text-orientation:mixed;dominant-baseline:auto;baseline-shift:baseline;text-anchor:start;white-space:normal;shape-padding:0;clip-rule:nonzero;display:inline;overflow:visible;visibility:visible;opacity:1;isolation:auto;mix-blend-mode:normal;color-interpolation:sRGB;color-interpolation-filters:linearRGB;solid-color:#fdfffc;solid-opacity:1;vector-effect:none;fill:#fdfffc;fill-opacity:1;fill-rule:nonzero;stroke:none;stroke-width:2;stroke-linecap:butt;stroke-linejoin:miter;stroke-miterlimit:4;stroke-dasharray:none;stroke-dashoffset:0;stroke-opacity:1;color-rendering:auto;image-rendering:auto;shape-rendering:auto;text-rendering:auto;enable-background:accumulate"
     d="m 246.01365,134.21094 c 1.18523,-0.0145 2.1489,0.0833 2.79688,0.28906 2.80935,0.89185 4.13925,2.4028 4.49609,5.33594 0.35684,2.93314 -0.5077,7.33384 -2.70312,13.32617 -0.68082,1.85825 -1.21624,3.7224 -1.53907,5.26758 -0.16141,0.77259 -0.27108,1.46357 -0.31445,2.05664 -0.0434,0.59307 -0.0848,1.04918 0.16602,1.61719 0.27196,0.6159 0.0984,1.06607 -0.45313,1.52343 -0.55158,0.45736 -1.50779,0.74782 -2.54687,0.51953 -0.69759,-0.15326 -1.13097,-0.41766 -1.44922,-0.80859 -0.31826,-0.39093 -0.54398,-0.95857 -0.61524,-1.80664 -0.1425,-1.69614 0.41216,-4.42011 1.77735,-8.05664 1.28286,-3.41721 2.28505,-6.82332 2.84961,-9.49023 0.28228,-1.33346 0.45691,-2.4751 0.49609,-3.38868 0.0196,-0.45679 0.01,-0.85467 -0.0664,-1.23632 -0.076,-0.38166 -0.19884,-0.85067 -0.73828,-1.16211 -0.68945,-0.39806 -1.41655,-0.41714 -2.30469,-0.38477 -0.88813,0.0324 -1.93127,0.17688 -3.10546,0.40625 -2.3484,0.45875 -5.21274,1.2633 -8.16016,2.25586 -5.89484,1.98512 -12.03845,4.64087 -15.01367,7.05859 -1.68442,1.36879 -2.64747,2.13275 -3.20508,3.14258 -0.2788,0.50492 -0.40468,1.07428 -0.40039,1.61914 0.004,0.54486 0.10713,1.07093 0.24023,1.68946 0.32449,1.50784 0.0558,2.43796 -1.04297,3.57226 -1.41171,1.45732 -2.1266,3.60371 -2.10351,5.92383 0.0162,1.62768 -0.37108,2.6842 -0.82227,3.25976 -0.45118,0.57557 -0.91903,0.73282 -1.45117,0.66602 -1.06427,-0.1336 -2.63839,-1.57934 -2.73633,-4.8457 -0.17694,-5.90122 2.54809,-13.08112 6.2461,-16.69727 2.92654,-2.86174 10.15416,-6.34278 17.33593,-8.68945 3.59089,-1.17334 7.18554,-2.08625 10.2461,-2.57617 1.53028,-0.24497 2.93587,-0.37225 4.12109,-0.38672 z"
     id="path819" />
</svg>
