<?xml version="1.0" encoding="UTF-8" standalone="no"?>
<!-- Created with Inkscape (http://www.inkscape.org/) -->

<svg
   xmlns:dc="http://purl.org/dc/elements/1.1/"
   xmlns:cc="http://creativecommons.org/ns#"
   xmlns:rdf="http://www.w3.org/1999/02/22-rdf-syntax-ns#"
   xmlns:svg="http://www.w3.org/2000/svg"
   xmlns="http://www.w3.org/2000/svg"
   xmlns:sodipodi="http://sodipodi.sourceforge.net/DTD/sodipodi-0.dtd"
   xmlns:inkscape="http://www.inkscape.org/namespaces/inkscape"
   version="1.1"
   id="svg2"
   width="571.87799"
   height="242.01642"
   viewBox="0 0 571.87799 242.01642"
   sodipodi:docname="ErikBentStraight.svg"
   inkscape:version="0.92.1 r15371">
  <metadata
     id="metadata8">
    <rdf:RDF>
      <cc:Work
         rdf:about="">
        <dc:format>image/svg+xml</dc:format>
        <dc:type
           rdf:resource="http://purl.org/dc/dcmitype/StillImage" />
        <dc:title></dc:title>
      </cc:Work>
    </rdf:RDF>
  </metadata>
  <defs
     id="defs6" />
  <sodipodi:namedview
     pagecolor="#ffffff"
     bordercolor="#666666"
     borderopacity="1"
     objecttolerance="10"
     gridtolerance="10"
     guidetolerance="10"
     inkscape:pageopacity="0"
     inkscape:pageshadow="2"
     inkscape:window-width="3840"
     inkscape:window-height="2071"
     id="namedview4"
     showgrid="false"
     inkscape:zoom="1.3644951"
     inkscape:cx="187.62144"
     inkscape:cy="82.871923"
     inkscape:window-x="-10"
     inkscape:window-y="-10"
     inkscape:window-maximized="1"
     inkscape:current-layer="svg2" />
  <path
     style="fill:#fdfffc"
     d="m 3.1488197,206.1408 c -4.281904,-5.01383 -4.198245,-10.22885 0.260025,-16.20938 6.098759,-8.18114 18.2499203,-15.16683 50.2893743,-28.91129 26.804349,-11.49867 42.614061,-17.50616 94.683481,-35.97846 43.75479,-15.52257 62.2583,-22.86185 63.63049,-25.238564 0.67692,-1.17245 -1.37704,-1.57653 -25.40461,-4.99792 -38.29072,-5.45238 -52.54832,-8.86295 -66.4549,-15.89675 -10.84134,-5.48344 -15.02185,-9.17866 -16.92487,-14.96021 C 99.180101,51.650946 117.31,38.294039 162.68886,20.141259 199.15522,5.5537185 234.98307,-1.7356935 259.95747,0.35131446 c 8.3321,0.69627404 10.58188,1.31081304 17.17551,4.69155104 5.53732,2.839148 8.24409,4.751648 10.01767,7.0776905 2.72879,3.578999 2.31581,7.293763 -1.04279,9.379832 -2.78169,1.727757 -5.8636,-0.638761 -4.67532,-3.590059 1.96155,-4.871871 -7.15937,-10.2303015 -20.30532,-11.9291485 -22.25546,-2.876063 -57.3613,3.883913 -93.74454,18.0514515 -37.24307,14.502343 -58.01948,27.105824 -59.46959,36.075714 -0.61395,3.79765 3.02726,8.17398 10.43789,12.54521 12.34514,7.2819 29.62351,11.73997 65.46253,16.89028 27.66633,3.97584 31.16038,4.78206 33.57765,7.7477 4.79423,5.881814 -4.37993,10.469114 -60.07181,30.037354 -54.442,19.12907 -73.636191,26.33194 -99.98706,37.52143 -28.83981,12.24637 -43.874445,20.65656 -49.4105193,27.6396 -2.523784,3.18343 -2.823537,4.16116 -2.233313,7.28456 2.453115,12.98161 40.6698553,20.54072 96.0655723,19.00138 42.51533,-1.18143 90.50023,-4.40858 94.28076,-6.34069 9.22445,-4.71434 27.77073,-10.25007 90.78328,-27.09713 76.95113,-20.57371 86.09044,-23.69173 91.76822,-31.30815 1.91469,-2.56844 3.3781,-5.04574 3.25203,-5.50508 -0.58457,-2.1299 -13.81048,-7.74606 -33.32392,-14.15045 -32.94354,-10.8122 -46.26366,-18.44782 -44.28575,-25.3864 1.39611,-4.8976 7.71056,-6.99738 41.6459,-13.848744 8.67382,-1.7512 18.04211,-4.08428 20.81841,-5.18463 l 5.04783,-2.00065 -3.78715,-1.34489 c -17.00654,-6.03939 -68.44549,-2.77957 -101.78763,6.45054 -8.96053,2.48055 -9.43244,2.74037 -7.25782,3.99589 3.56057,2.05569 9.95255,10.283054 9.11549,11.732884 -1.12884,1.95521 -3.12171,1.15925 -6.74746,-2.69498 -1.82734,-1.94248 -4.44261,-3.92138 -5.81171,-4.39755 -1.3691,-0.47618 -2.77328,-1.63326 -3.12046,-2.571214 -0.51388,-1.38846 -1.58083,-1.06658 -5.74075,1.731904 -5.82567,3.91905 -7.25936,6.93283 -5.22073,10.97455 1.39569,2.76704 5.85653,5.78039 19.80912,13.38127 l 8.6044,4.68738 1.29305,-3.58358 c 0.71118,-1.97097 1.10753,-4.53354 0.88078,-5.69462 -0.30676,-1.57078 0.85184,-4.15252 4.52716,-10.08795 4.87697,-7.87603 4.96682,-7.9611 7.1045,-6.72691 1.6651,0.96134 1.93438,1.78343 1.16612,3.56001 -3.00376,6.9461 -9.56921,27.49977 -10.43036,32.65311 -1.52611,9.13261 1.07906,18.52824 5.91091,21.31791 1.80883,1.04433 8.05287,-0.76993 10.57568,-3.07287 0.85241,-0.77811 1.44692,-2.65494 1.35518,-4.27829 -0.58492,-10.35245 10.66211,-19.79075 12.71416,-15.10398 0.64141,1.46497 0.63284,2.57529 -1.38853,8.43109 -0.38224,1.10731 -1.76817,4.08877 -2.72916,6.09756 -0.71288,1.49016 -2.25136,4.41479 -2.25136,4.41479 0,0 2.58174,2.85084 4.21297,3.81382 1.41514,0.83539 3.85652,1.81749 4.66257,1.60151 1.83215,-0.49092 4.46962,0.96875 4.5155,2.49907 0.12001,4.00232 -8.91662,3.74055 -14.02189,-0.40619 -1.29715,-1.0536 -1.98919,-1.78395 -3.05103,-2.41806 -0.79465,0.71691 -1.66328,1.20524 -3.36856,2.24229 -5.1504,3.13218 -9.49933,3.33145 -13.99994,0.6415 -7.66906,-4.58367 -11.29134,-15.06677 -9.23707,-26.73267 l 0.88242,-5.01119 -13.3534,-6.95381 c -15.31718,-7.97643 -18.75396,-10.8694 -20.27259,-17.06471 -1.30225,-5.31262 1.29396,-10.092314 7.85306,-14.457734 9.34075,-6.21675 43.22566,-13.81769 71.59821,-16.06064 38.26216,-3.02476 67.09534,1.8141 62.10409,10.42247 -2.27945,3.93214 -11.62629,6.99715 -36.09099,11.836094 -23.079,4.56487 -29.70381,6.34288 -30.91054,8.29597 -0.94809,1.53455 4.12794,5.43751 11.87831,9.13323 3.78992,1.80722 15.62021,6.16601 26.28953,9.68622 12.43987,4.10437 22.77894,8.14354 28.82142,11.25967 l 9.42268,4.85931 5.58426,-3.8521 c 4.61049,-3.18035 6.02582,-3.66071 8.11633,-2.75463 5.92196,2.56671 0.11256,11.60116 -13.16638,20.47563 -6.50347,4.34634 -7.44193,5.29441 -7.62804,7.70618 -0.32564,4.21992 1.81643,5.1415 8.06131,3.46818 7.48847,-2.00652 13.44358,-6.29109 14.0663,-10.12038 0.83959,-5.16288 3.00561,-9.62484 6.60671,-13.60963 2.75049,-3.04356 4.20117,-3.88826 6.32598,-3.68349 2.40861,0.23211 2.81834,0.6526 3.24187,3.32696 0.4112,2.59658 -0.18756,4.12929 -3.94452,10.09714 -2.60343,4.13552 -4.02895,7.11676 -3.45814,7.23208 2.42416,0.4898 6.98164,-2.72343 12.0502,-8.49594 5.68357,-6.47292 7.6331,-7.29091 9.64736,-4.04794 1.48106,2.38453 13.5238,1.75536 19.34908,-1.01089 4.72195,-2.24231 10.80589,-8.16922 16.51572,-16.08944 l 3.68209,-5.10751 -6.16884,-0.41779 c -3.39286,-0.2298 -6.32821,-0.14176 -6.52301,0.19564 -0.1948,0.3374 0.98346,2.1216 2.61834,3.96491 3.02395,3.40948 3.18212,6.7772 0.29682,6.31987 -2.1913,-0.34731 -12.63949,-11.96075 -12.72501,-14.14418 -0.11051,-2.82145 2.94454,-3.3677 14.9146,-2.66672 l 10.90583,0.63864 4.6306,-7.44226 c 4.56123,-7.33078 4.66698,-7.42654 7.05874,-6.39216 2.65469,1.1481 2.61187,1.75188 -0.71418,10.07244 l -1.79093,4.48022 18.73461,0.81597 c 20.12729,0.87664 48.91846,1.18177 60.29634,0.63903 7.73196,-0.36882 9.78787,0.24417 8.45995,2.52244 -1.44611,2.48093 -30.59724,3.354 -72.54888,2.17277 -9.53012,-0.26834 -17.47976,-0.22436 -17.66586,0.0977 -0.1861,0.32208 -1.30926,4.59695 -2.4959,9.4997 -2.33804,9.65982 -3.72218,11.73242 -6.41235,9.60175 -1.27263,-1.00796 -1.45183,-2.68508 -0.68669,-6.42688 l 1.03532,-5.06303 -5.30852,6.63735 c -5.12773,6.41133 -12.07404,11.95758 -17.01584,13.58623 -3.44282,1.13464 -15.84041,1.92536 -19.44011,1.23989 -2.23685,-0.42595 -3.39665,-0.0275 -4.25684,1.46239 -0.65029,1.12633 -3.22715,3.73268 -5.72634,5.79189 -4.9774,4.10112 -10.04636,5.23936 -13.76679,3.09137 -1.85177,-1.06912 -2.9773,-0.79957 -6.00795,1.43879 -11.51063,8.50147 -23.46514,8.80767 -27.55174,0.70572 -1.16553,-2.31076 -1.46183,-2.48056 -3.20363,-1.83588 -1.05562,0.39068 -2.66099,0.61372 -3.56748,0.49562 -0.9065,-0.11809 -14.5212,3.52477 -30.25491,8.09524 -15.73371,4.57048 -46.94384,12.97065 -69.35586,18.66705 -39.86125,10.13142 -60.95115,16.26695 -56.41468,16.41228 1.24711,0.04 12.15908,-0.41014 24.24884,-1.00021 26.05905,-1.27188 78.41881,-2.13481 117.74512,-1.94054 15.51534,0.0766 43.23494,0.2149 61.59911,0.30722 55.01256,0.27657 87.0977,-0.83984 93.63119,-3.25792 1.62546,-0.6016 1.57213,-0.88279 -0.38136,-2.01064 -2.9038,-1.6765 -1.68512,-4.13141 1.58779,-3.19844 4.39346,1.2524 6.20546,3.40468 5.07244,6.02503 -0.82282,1.90296 -2.38664,2.69192 -7.33175,3.69895 -13.54044,2.7574 -32.83099,3.214 -119.18144,2.821 -85.90211,-0.39097 -135.14834,0.55689 -178.41375,3.43399 -11.29325,0.75098 -15.27179,1.51758 -19.64024,3.7844 -6.91359,3.58748 -21.15309,12.91705 -20.93833,13.71856 0.18583,0.69353 11.33804,-3.55747 15.51587,-5.91436 2.80847,-1.58436 5.75806,-0.9027 5.8255,1.34629 0.0392,1.3064 -10.05895,6.49097 -19.30196,9.91002 -6.28232,2.32386 -10.16205,1.92583 -11.30402,-1.15969 -1.09475,-2.95795 2.75066,-7.19699 12.49025,-13.76877 4.6836,-3.16025 8.49046,-5.84522 8.45968,-5.9666 -0.0308,-0.12133 -13.5042,0.57236 -29.94095,1.54165 C 79.750094,225.35034 49.484589,224.42943 24.359205,217.33109 13.118598,214.15543 7.4306047,211.15454 3.1487997,206.14083 Z M 207.06484,162.58966 c -0.18648,-6.21921 2.56425,-13.54855 6.54616,-17.44231 6.41246,-6.27048 29.02188,-13.65819 35.50299,-11.60071 6.15033,1.95246 6.86712,7.84422 2.42828,19.95986 -1.32927,3.62819 -2.09959,7.31521 -1.71182,8.19336 0.90153,2.04163 -1.46985,4.00793 -4.12902,3.4237 -3.46523,-0.76132 -3.7875,-4.59707 -1.00825,-12.00034 2.53209,-6.74484 3.96017,-13.49095 2.97618,-14.05906 -2.82447,-1.63071 -22.02758,4.83604 -27.45321,9.24501 -3.35175,2.72369 -3.53579,3.05698 -3.01761,5.4649 0.37866,1.75961 -0.0301,3.16499 -1.30242,4.47846 -1.18172,1.2199 -1.84229,3.11215 -1.82134,5.21713 0.0713,7.15003 -6.79501,6.28807 -7.00994,-0.88 z"
     id="path819"
     inkscape:connector-curvature="0"
     sodipodi:nodetypes="cssssssssssccsssssscsssssssccsssscsssssccccscccsscssccssacascccccscscsscsccssccscssccccccccssccsccssccsccsscscscscsccscsccccsssssscsccsssccccccscssccssscsccsscccs" />
</svg>
