<?xml version="1.0" standalone="no"?>
<!DOCTYPE svg PUBLIC "-//W3C//DTD SVG 20010904//EN"
 "http://www.w3.org/TR/2001/REC-SVG-20010904/DTD/svg10.dtd">
<svg version="1.0" xmlns="http://www.w3.org/2000/svg"
 width="700.000000pt" height="700.000000pt" viewBox="0 0 700.000000 700.000000"
 preserveAspectRatio="xMidYMid meet">
<metadata>
Created by potrace 1.11, written by Peter Selinger 2001-2013
</metadata>
<g transform="translate(0.000000,700.000000) scale(0.100000,-0.100000)"
fill="#000000" stroke="none">
<path d="M6505 5884 c-291 -175 -910 -514 -919 -503 -1 2 -8 40 -14 83 -14 88
-23 107 -54 101 -40 -8 -41 -11 -47 -217 -1 -24 -13 -33 -120 -88 -135 -69
-166 -90 -174 -121 -5 -17 3 -24 48 -44 59 -26 161 -55 195 -55 16 0 21 5 18
23 -2 16 -18 29 -56 46 -29 14 -51 30 -49 35 4 11 115 75 131 76 10 0 1 -102
-15 -182 -27 -136 -60 -200 -133 -265 -65 -57 -128 -85 -172 -77 -32 6 -35 4
-48 -27 -7 -19 -21 -68 -31 -111 -26 -114 -85 -204 -85 -131 -2 187 -4 202
-31 228 -23 23 -29 25 -52 14 -54 -24 -71 -122 -47 -266 13 -80 13 -84 -10
-133 -27 -57 -105 -144 -139 -155 -29 -9 -64 22 -63 57 0 12 20 69 45 124 90
200 98 324 21 324 -33 0 -59 -29 -94 -105 -23 -51 -35 -65 -52 -66 -58 -2
-139 -8 -203 -14 -70 -7 -324 -51 -493 -86 -29 -6 -65 -12 -80 -14 -15 -2 -56
-8 -92 -14 -72 -12 -181 -13 -220 -2 -47 13 -36 39 52 125 45 46 148 141 228
212 244 217 327 307 336 366 6 44 -5 58 -54 65 -75 10 -287 -71 -492 -188
-118 -68 -444 -291 -480 -329 -3 -3 -34 -29 -70 -59 -153 -126 -320 -287 -390
-376 -95 -119 -111 -242 -43 -307 56 -54 92 -62 284 -60 97 0 197 3 223 6 47
6 47 5 62 -32 77 -190 179 -282 312 -282 68 0 117 34 159 110 20 35 20 35 89
36 72 1 110 11 137 39 41 40 3 79 -50 51 -27 -13 -127 -15 -140 -2 -6 6 -7 13
-17 130 -11 125 -54 174 -100 113 -31 -41 -30 -163 2 -229 12 -26 22 -53 22
-61 0 -25 -57 -93 -88 -106 -62 -26 -157 47 -215 164 -31 63 -84 279 -112 450
-10 62 -14 72 -34 78 -40 10 -46 -6 -46 -130 0 -100 3 -126 22 -170 13 -28 23
-63 23 -77 l0 -26 -97 -1 c-309 -4 -354 3 -388 54 -20 32 -13 75 24 142 20 37
32 49 46 47 11 -1 45 -4 75 -6 30 -2 74 -9 98 -15 48 -13 82 -7 82 15 0 19
-88 60 -158 75 -62 13 -66 4 48 119 318 323 917 716 1149 755 l45 7 -41 -48
c-41 -49 -116 -123 -224 -219 -31 -27 -93 -84 -139 -125 -185 -166 -261 -258
-253 -304 7 -37 44 -65 97 -75 48 -9 183 -7 252 3 22 3 57 9 79 12 22 3 130
23 240 44 312 60 417 75 504 71 23 -1 24 -3 19 -68 -11 -146 -54 -197 -854
-1003 -701 -706 -777 -785 -879 -919 -32 -42 -83 -87 -158 -142 -169 -123
-561 -380 -842 -554 -88 -54 -176 -108 -195 -121 -117 -74 -459 -249 -605
-309 -242 -99 -434 -135 -521 -96 -77 35 -90 83 -54 191 78 233 450 733 1155
1555 66 78 140 165 165 195 25 29 52 61 60 69 26 27 252 302 320 388 72 91
138 195 147 231 9 36 -27 66 -75 65 -46 -1 -97 -18 -357 -120 -339 -134 -517
-196 -655 -228 -36 -9 -74 -18 -85 -21 -68 -16 -230 -23 -295 -12 -40 6 -91
30 -107 50 -50 63 12 237 167 473 94 143 299 414 359 476 9 9 36 40 61 70 60
72 299 312 377 378 220 187 410 301 571 342 130 33 185 24 220 -35 33 -55 79
-44 86 21 5 39 -9 60 -54 83 -34 17 -54 19 -157 16 -129 -4 -152 -10 -283 -76
-210 -105 -442 -288 -680 -535 -75 -77 -89 -92 -155 -166 -64 -73 -244 -302
-321 -410 -305 -428 -357 -642 -177 -730 42 -21 64 -24 173 -26 253 -3 403 39
1062 301 120 47 222 86 228 86 21 0 8 -31 -46 -106 -47 -66 -154 -201 -242
-305 -11 -13 -71 -85 -133 -159 -62 -74 -118 -140 -124 -146 -5 -6 -41 -49
-80 -95 -38 -45 -86 -101 -106 -124 -181 -205 -470 -562 -675 -835 -345 -458
-444 -638 -432 -784 16 -191 263 -209 673 -49 254 98 599 294 1126 636 69 45
208 135 308 201 100 65 184 116 185 115 2 -2 -19 -51 -46 -107 -92 -192 -98
-271 -22 -272 34 0 87 49 155 142 88 121 117 174 103 188 -21 21 -49 1 -102
-74 -51 -70 -112 -138 -112 -123 0 4 21 49 46 100 94 189 144 258 229 315 22
15 42 29 45 32 3 3 77 53 165 111 134 88 237 153 565 358 78 48 232 141 235
141 2 0 39 22 82 48 122 76 853 502 1063 619 59 34 555 319 755 435 363 212
570 347 672 440 67 63 55 123 -24 121 -60 -2 -86 -53 -27 -53 13 0 24 -4 24
-10 0 -37 -442 -318 -1008 -641 -100 -57 -197 -112 -215 -123 -33 -18 -707
-405 -762 -436 -182 -104 -902 -532 -990 -589 -22 -14 -48 -30 -58 -36 -9 -5
-114 -72 -233 -148 -119 -76 -218 -136 -221 -134 -2 3 23 34 55 68 112 120
1494 1499 1526 1524 l32 25 40 -21 c100 -52 217 19 299 181 28 55 41 71 63 76
52 11 60 15 86 35 34 27 65 88 86 169 l17 65 68 38 c72 39 171 110 193 136 47
60 109 252 115 359 1 20 12 2 31 -51 20 -53 42 -71 70 -55 18 10 18 9 0 103
-2 11 -13 51 -24 90 -11 38 -20 75 -20 82 0 12 71 55 315 188 338 186 655 379
713 435 24 23 25 43 1 47 -8 2 -63 -27 -124 -63z"/>
<path d="M2836 3629 c-78 -42 -252 -240 -291 -331 -22 -54 -24 -118 -6 -190
18 -72 62 -138 91 -138 51 0 63 27 35 81 -9 17 -15 49 -14 74 2 31 -3 50 -15
64 -26 28 -15 72 36 151 46 71 196 230 216 230 18 0 40 -57 63 -164 30 -136
50 -165 102 -152 35 8 42 37 18 77 -11 19 -22 49 -25 67 -3 17 -9 46 -12 64
-6 35 -39 126 -52 144 -15 21 -57 44 -82 44 -14 -1 -43 -10 -64 -21z"/>
</g>
</svg>
