<?xml version="1.0" encoding="UTF-8" standalone="no"?>
<!-- Created with Inkscape (http://www.inkscape.org/) -->

<svg
   xmlns:dc="http://purl.org/dc/elements/1.1/"
   xmlns:cc="http://creativecommons.org/ns#"
   xmlns:rdf="http://www.w3.org/1999/02/22-rdf-syntax-ns#"
   xmlns:svg="http://www.w3.org/2000/svg"
   xmlns="http://www.w3.org/2000/svg"
   xmlns:sodipodi="http://sodipodi.sourceforge.net/DTD/sodipodi-0.dtd"
   xmlns:inkscape="http://www.inkscape.org/namespaces/inkscape"
   version="1.1"
   id="svg2"
   width="512"
   height="448"
   viewBox="0 0 512 448"
   sodipodi:docname="Schriftzug.svg"
   inkscape:version="0.92.3 (2405546, 2018-03-11)">
  <metadata
     id="metadata8">
    <rdf:RDF>
      <cc:Work
         rdf:about="">
        <dc:format>image/svg+xml</dc:format>
        <dc:type
           rdf:resource="http://purl.org/dc/dcmitype/StillImage" />
        <dc:title></dc:title>
      </cc:Work>
    </rdf:RDF>
  </metadata>
  <defs
     id="defs6" />
  <sodipodi:namedview
     pagecolor="#ffffff"
     bordercolor="#666666"
     borderopacity="1"
     objecttolerance="10"
     gridtolerance="10"
     guidetolerance="10"
     inkscape:pageopacity="0"
     inkscape:pageshadow="2"
     inkscape:window-width="1920"
     inkscape:window-height="1020"
     id="namedview4"
     showgrid="false"
     inkscape:zoom="1.3644951"
     inkscape:cx="301.07636"
     inkscape:cy="230.64642"
     inkscape:window-x="0"
     inkscape:window-y="32"
     inkscape:window-maximized="1"
     inkscape:current-layer="svg2" />
  <path
     style="fill:#fdfffc"
     d="m 33.561906,399.1448 c -6.215151,-2.20115 -8.750211,-6.75932 -7.879497,-14.16774 1.191107,-10.13446 8.221479,-22.25982 29.096229,-50.1826 17.46391,-23.36032 28.15178,-36.46781 64.009072,-78.5 30.13147,-35.32034 42.48634,-50.9281 42.48634,-53.67248 0,-1.35383 -1.98082,-0.6768 -24.5,8.37398 -35.88693,14.42346 -49.939652,18.59862 -65.500002,19.46046 -12.1306,0.67187 -17.598632,-0.43803 -22.137477,-4.49349 -9.654058,-8.6259 -0.631561,-29.25827 29.591297,-67.66847 24.287022,-30.86636 51.670142,-55.0931 74.342112,-65.772899 7.56395,-3.56306 9.81958,-4.15574 17.2202,-4.52475 6.21504,-0.30989 9.51542,-0.007 12.21441,1.12062 4.1527,1.73511 5.65243,5.15868 3.78683,8.64457 -1.54514,2.887129 -5.39741,2.378619 -5.84398,-0.77142 -0.73718,-5.19994 -11.31534,-5.28002 -23.54949,-0.17829 -20.71183,8.636989 -47.73439,32.044219 -72.159432,62.505289 -25.00227,31.18093 -36.693427,52.48407 -33.464314,60.97728 1.367131,3.59583 6.708674,5.56524 15.312084,5.64552 14.33215,0.13374 31.52469,-4.64464 65.137352,-18.10385 25.94766,-10.38999 29.37671,-11.43881 32.95295,-10.07912 7.09283,2.69668 1.44142,11.25648 -37.00504,56.04901 -37.583622,43.78726 -50.604842,59.62223 -67.830622,82.48804 -18.852819,25.02558 -27.668104,39.82633 -28.970963,48.64186 -0.593947,4.01882 -0.364674,5.01544 1.708174,7.42527 8.615267,10.01585 45.491489,-2.54614 92.695911,-31.57711 36.22864,-22.28081 76.17121,-49.06805 78.47919,-52.63158 5.63144,-8.69496 18.92513,-22.76218 65.07206,-68.85844 56.35478,-56.29292 62.71065,-63.56286 63.81954,-72.99776 0.37395,-3.18168 0.40265,-6.05879 0.0638,-6.39356 -1.5712,-1.55226 -15.83326,0.19696 -35.93459,4.40732 -33.93604,7.10813 -49.28941,7.15554 -51.04578,0.1576 -1.23974,-4.9395 3.17885,-9.91519 29.14204,-32.81631 6.63615,-5.85349 13.58278,-12.55814 15.43695,-14.89922 l 3.37123,-4.25653 -3.95222,0.72886 c -17.74779,3.27301 -60.66531,31.81557 -84.9254,56.48015 -6.51977,6.62848 -6.79855,7.08945 -4.28751,7.08945 4.11139,0 13.76069,3.92911 13.76069,5.60323 0,2.25768 -2.12386,2.56479 -7.19097,1.03981 -2.55376,-0.76857 -5.8081,-1.17471 -7.23186,-0.90254 -1.42377,0.27217 -3.21836,-0.0278 -3.988,-0.6665 -1.13927,-0.9455 -1.90233,-0.13327 -4.10569,4.37025 -3.08565,6.30683 -2.82038,9.63368 0.96599,12.1146 2.59222,1.69848 7.9621,2.0777 23.84584,1.68396 l 9.79532,-0.24281 -0.67198,-3.75 c -0.36958,-2.0625 -1.30762,-4.47993 -2.08453,-5.37208 -1.05105,-1.20695 -1.33854,-4.0221 -1.12334,-11 0.28556,-9.25932 0.32084,-9.37792 2.78922,-9.37792 1.92269,0 2.56694,0.57731 2.7899,2.5 0.87171,7.51738 5.4627,28.60011 7.29359,33.4936 3.24466,8.67213 10.19862,15.5064 15.77796,15.5064 2.08866,0 6.58902,-4.69321 7.62237,-7.94902 0.34915,-1.10007 -0.0744,-3.02271 -0.96552,-4.3827 -5.68279,-8.67303 -0.66172,-22.47035 3.45879,-19.43751 1.28796,0.94799 1.8357,1.91385 3.01304,7.9958 0.22263,1.15008 0.51311,4.42506 0.68526,6.64522 0.12771,1.64696 0.25766,4.949 0.25766,4.949 0,0 3.66127,1.17803 5.55545,1.19638 1.64324,0.0159 4.24859,-0.35426 4.83866,-0.94433 1.34123,-1.34123 4.35518,-1.39585 5.16007,-0.0935 2.10509,3.40611 -5.85174,7.69772 -12.3464,6.65918 -1.65017,-0.26387 -2.61467,-0.55035 -3.8513,-0.56859 -0.32974,1.01819 -0.83783,1.87541 -1.79612,3.62616 -2.89429,5.28775 -6.56093,7.63479 -11.80355,7.55553 -8.93344,-0.13505 -17.31197,-7.40254 -21.36588,-18.53264 l -1.74139,-4.78103 -15.04129,0.65453 c -17.25328,0.75079 -21.67611,-0.0362 -26.08893,-4.64218 -3.78409,-3.94974 -3.92556,-9.38718 -0.42792,-16.44729 4.98095,-10.05424 30.52568,-33.5793 53.97555,-49.70803 31.62362,-21.7506 59.01332,-31.97661 58.99496,-22.02592 -0.008,4.54506 -6.57009,11.87285 -25.33767,28.29585 -17.70457,15.49279 -22.55282,20.345 -22.62133,22.63979 -0.0538,1.803 6.29365,2.64505 14.85353,1.97046 4.18578,-0.32987 16.61051,-2.47019 27.61051,-4.75626 12.82543,-2.66545 23.79891,-4.33696 30.58992,-4.65955 l 10.58993,-0.50305 2.91007,-6.12815 c 2.40262,-5.05951 3.38815,-6.18318 5.65163,-6.44375 6.41192,-0.73814 5.89806,9.99062 -1.16461,24.31561 -3.45899,7.01578 -3.79769,8.30606 -2.75298,10.48777 1.82795,3.81738 4.14382,3.54445 8.71539,-1.02712 5.48194,-5.48194 8.49693,-12.17004 7.12158,-15.79766 -1.85434,-4.89098 -2.20948,-9.83816 -1.08324,-15.08964 0.86022,-4.01105 1.69419,-5.46792 3.63672,-6.35299 2.20197,-1.00329 2.76705,-0.844 4.47102,1.2603 1.6544,2.04311 1.90221,3.66985 1.63252,10.71664 -0.18688,4.88318 0.0692,8.17777 0.6212,7.99224 2.34428,-0.7879 4.68456,-5.84938 6.18781,-13.3828 1.68566,-8.4475 2.965,-10.13067 6.33089,-8.3293 2.4749,1.32453 12.58963,-5.24172 16.25135,-10.55 2.96817,-4.30287 5.27356,-12.47769 6.25831,-22.19172 l 0.63503,-6.264279 -5.55127,2.722599 c -3.0532,1.49742 -5.55127,3.04134 -5.55127,3.43094 0,0.38959 1.9125,1.34563 4.25,2.12454 4.32356,1.44072 6.1444,4.27816 3.41699,5.32476 -2.07138,0.79487 -16.92649,-4.03857 -18.09227,-5.88672 -1.50643,-2.38819 0.8662,-4.38878 11.58306,-9.766749 l 9.76405,-4.89983 0.28908,-8.76049 c 0.28476,-8.629253 0.32846,-8.765064 2.91697,-9.065138 2.87308,-0.333063 3.13789,0.21123 4.41772,9.080078 l 0.68912,4.77545 16.63264,-8.660655 c 17.86906,-9.304459 42.95551,-23.435789 52.53768,-29.594755 6.51166,-4.185394 8.59862,-4.682478 8.58774,-2.04548 -0.0119,2.871606 -24.82098,18.203271 -61.74278,38.15611 -8.3875,4.53268 -15.2501,8.54558 -15.25023,8.91756 -1.2e-4,0.37198 1.16463,4.63571 2.58834,9.474939 2.80511,9.53467 2.64271,12.02166 -0.75238,11.52153 -1.60611,-0.2366 -2.59986,-1.59943 -3.80813,-5.2225 l -1.63491,-4.90237 -1.27863,8.40237 c -1.23508,8.11624 -4.47764,16.39259 -7.94304,20.27395 -2.41425,2.70403 -12.75552,9.58761 -16.21568,10.79382 -2.15014,0.74955 -2.95534,1.67451 -2.95534,3.3949 0,1.30057 -0.92845,4.84616 -2.06321,7.87909 -2.25999,6.04037 -6.08072,9.5606 -10.3767,9.5606 -2.13824,0 -2.97821,0.7962 -4.48365,4.25 -5.71776,13.1178 -15.91757,19.36024 -23.50764,14.38704 -2.16476,-1.41841 -2.50627,-1.41731 -3.69237,0.0119 -0.71885,0.86615 -1.99762,1.86199 -2.84171,2.21296 -0.8441,0.35098 -10.81335,10.31314 -22.15391,22.13814 -11.34055,11.825 -34.16923,34.70483 -50.73041,50.84407 -29.45514,28.70469 -44.65177,44.56316 -40.6504,42.42079 1.1,-0.58895 10.325,-6.43473 20.5,-12.99063 21.93186,-14.131 66.84528,-41.05821 101,-60.55312 13.475,-7.69129 37.55,-21.43136 53.5,-30.53349 47.78056,-27.26676 75.0089,-44.27617 79.45803,-49.63704 1.10689,-1.33373 0.92011,-1.55058 -1.33559,-1.55058 -3.35301,0 -3.52506,-2.73535 -0.22415,-3.56383 4.43105,-1.11212 7.07642,-0.15419 7.40537,2.68161 0.2389,2.05942 -0.72093,3.52459 -4.5,6.86926 -10.34766,9.1582 -26.82547,19.1989 -101.80366,62.03378 -74.58889,42.61246 -116.76344,68.05645 -152.79384,92.18079 -9.40475,6.297 -12.46697,8.95017 -15.11675,13.09751 -4.1936,6.56365 -11.86058,21.76304 -11.27384,22.34979 0.5077,0.5077 8.04029,-8.74988 10.47996,-12.87992 1.64002,-2.77633 4.53527,-3.66079 5.71817,-1.74683 0.68712,1.11179 -5.46582,10.65082 -11.76098,18.23331 -4.27872,5.15368 -7.83767,6.74884 -10.36941,4.64769 -2.42706,-2.01429 -1.21635,-7.60811 3.93249,-18.16923 2.47599,-5.07866 4.43034,-9.30734 4.343,-9.39707 -0.0873,-0.0897 -11.4088,7.24778 -25.1588,16.30558 -59.26872,39.04318 -85.939872,53.3784 -111.248262,59.79375 -11.322482,2.8701 -17.748874,3.11525 -23.963882,0.91415 z M 188.38279,259.4704 c -3.2711,-5.29275 -4.55357,-13.01551 -3.05201,-18.37856 2.41811,-8.63663 18.30459,-26.33928 24.94613,-27.79801 6.30258,-1.38428 9.86921,3.35974 12.08288,16.07161 0.66292,3.80674 1.83931,7.38495 2.61421,7.95157 1.80156,1.31733 0.73103,4.20589 -1.86399,5.02952 -3.38164,1.07329 -5.57861,-2.08743 -6.87334,-9.88848 -1.17957,-7.10724 -3.31587,-13.66359 -4.45209,-13.66359 -3.26141,0 -16.65842,15.20193 -19.15267,21.73302 -1.54085,4.03466 -1.53359,4.41532 0.11913,6.24155 1.20773,1.33453 1.55647,2.75598 1.1113,4.52967 -0.41345,1.64732 -0.0394,3.61634 1.03124,5.42883 3.63673,6.15648 -2.74062,8.84314 -6.51079,2.74287 z"
     id="path819"
     inkscape:connector-curvature="0"
     sodipodi:nodetypes="cssssssssssccsssssscsssssssccsssscsssssccccscccsscssccssacascccccscscsscsccssccscssccccccccssccsccssccsccsscscscscsccscsccccsssssscsccsssccccccscssccssscsccsscccs" />
</svg>
